<?xml version="1.0" encoding="utf-8"?>
<!-- Generator: Adobe Illustrator 19.0.0, SVG Export Plug-In . SVG Version: 6.00 Build 0)  -->
<svg version="1.1" id="Camada_1" xmlns="http://www.w3.org/2000/svg" xmlns:xlink="http://www.w3.org/1999/xlink" x="0px" y="0px"
	 viewBox="-51 410.9 20 20" style="enable-background:new -51 410.9 20 20;" xml:space="preserve">
<style type="text/css">
	.st0{fill:#BBBCBE;}
</style>
<g>
	<path class="st0" d="M-41,412.7c2.7,0,3,0,4,0.1c1,0,1.5,0.2,1.9,0.3c0.5,0.2,0.8,0.4,1.1,0.7s0.6,0.7,0.7,1.1
		c0.1,0.4,0.3,0.9,0.3,1.9c0,1.1,0.1,1.4,0.1,4s0,3-0.1,4c0,1-0.2,1.5-0.3,1.9c-0.2,0.5-0.4,0.8-0.7,1.1s-0.7,0.6-1.1,0.7
		c-0.4,0.1-0.9,0.3-1.9,0.3c-1.1,0-1.4,0.1-4,0.1c-2.7,0-3,0-4-0.1c-1,0-1.5-0.2-1.9-0.3c-0.5-0.2-0.8-0.4-1.1-0.7
		c-0.3-0.3-0.6-0.7-0.7-1.1c-0.1-0.4-0.3-0.9-0.3-1.9c0-1.1-0.1-1.4-0.1-4s0-3,0.1-4c0-1,0.2-1.5,0.3-1.9c0.2-0.5,0.4-0.8,0.7-1.1
		c0.3-0.3,0.7-0.6,1.1-0.7c0.4-0.1,0.9-0.3,1.9-0.3C-44,412.7-43.7,412.7-41,412.7 M-41,410.9c-2.7,0-3.1,0-4.1,0.1
		c-1.1,0-1.8,0.2-2.4,0.5c-0.7,0.3-1.2,0.6-1.8,1.2s-0.9,1.1-1.2,1.8c-0.2,0.6-0.4,1.4-0.5,2.4c0,1.1-0.1,1.4-0.1,4.1s0,3.1,0.1,4.1
		c0,1.1,0.2,1.8,0.5,2.4c0.3,0.7,0.6,1.2,1.2,1.8s1.1,0.9,1.8,1.2c0.6,0.2,1.4,0.4,2.4,0.5c1.1,0,1.4,0.1,4.1,0.1
		c2.7,0,3.1,0,4.1-0.1c1.1,0,1.8-0.2,2.4-0.5c0.7-0.3,1.2-0.6,1.8-1.2c0.6-0.6,0.9-1.1,1.2-1.8c0.2-0.6,0.4-1.4,0.5-2.4
		c0-1.1,0.1-1.4,0.1-4.1s0-3.1-0.1-4.1c0-1.1-0.2-1.8-0.5-2.4c-0.3-0.7-0.6-1.2-1.2-1.8c-0.6-0.6-1.1-0.9-1.8-1.2
		c-0.6-0.2-1.4-0.4-2.4-0.5C-37.9,410.9-38.3,410.9-41,410.9z M-41,415.8c-2.8,0-5.1,2.3-5.1,5.1s2.3,5.1,5.1,5.1
		c2.8,0,5.1-2.3,5.1-5.1S-38.2,415.8-41,415.8z M-41,424.2c-1.8,0-3.3-1.5-3.3-3.3s1.5-3.3,3.3-3.3s3.3,1.5,3.3,3.3
		S-39.2,424.2-41,424.2z M-34.5,415.6c0,0.7-0.5,1.2-1.2,1.2s-1.2-0.5-1.2-1.2c0-0.7,0.5-1.2,1.2-1.2S-34.5,414.9-34.5,415.6z"/>
</g>
</svg>
