<?xml version="1.0" encoding="utf-8"?>
<!-- Generator: Adobe Illustrator 19.0.0, SVG Export Plug-In . SVG Version: 6.00 Build 0)  -->
<svg version="1.1" id="Camada_1" xmlns="http://www.w3.org/2000/svg" xmlns:xlink="http://www.w3.org/1999/xlink" x="0px" y="0px"
	 viewBox="0 0 81.4 81.5" style="enable-background:new 0 0 81.4 81.5;" xml:space="preserve">
<style type="text/css">
	.st0{fill:#5A82A1;}
</style>
<g id="XMLID_11_">
	<g id="XMLID_6_">
		<path id="XMLID_105_" class="st0" d="M71.8,54.6H26.5L17.4,18h63.5L71.8,54.6z M27.3,53.6H71L79.6,19H18.7L27.3,53.6z"/>
	</g>
	<g id="XMLID_4_">
		<path id="XMLID_102_" class="st0" d="M62.4,81.4c-5.2,0-9.4-4.2-9.4-9.4s4.2-9.4,9.4-9.4s9.4,4.2,9.4,9.4S67.6,81.4,62.4,81.4z
			 M62.4,63.6c-4.6,0-8.4,3.8-8.4,8.4s3.8,8.4,8.4,8.4s8.4-3.8,8.4-8.4S67,63.6,62.4,63.6z"/>
	</g>
	<g id="XMLID_8_">
		<path id="XMLID_99_" class="st0" d="M35.9,81.4c-5.2,0-9.4-4.2-9.4-9.4s4.2-9.4,9.4-9.4s9.4,4.2,9.4,9.4S41.1,81.4,35.9,81.4z
			 M35.9,63.6c-4.6,0-8.4,3.8-8.4,8.4s3.8,8.4,8.4,8.4s8.4-3.8,8.4-8.4S40.6,63.6,35.9,63.6z"/>
	</g>
	<g id="XMLID_7_">
		<path id="XMLID_98_" class="st0" d="M19,24.4L14.1,4.4c-0.4-1.8-2-3-3.8-3H0.4v-1h9.8c2.3,0,4.3,1.6,4.8,3.8L20,24.1L19,24.4z"/>
	</g>
</g>
</svg>
