<?xml version="1.0" encoding="utf-8"?>
<!-- Generator: Adobe Illustrator 19.0.0, SVG Export Plug-In . SVG Version: 6.00 Build 0)  -->
<svg version="1.1" id="Camada_1" xmlns="http://www.w3.org/2000/svg" xmlns:xlink="http://www.w3.org/1999/xlink" x="0px" y="0px"
	 viewBox="0 0 81.5 81.1" style="enable-background:new 0 0 81.5 81.1;" xml:space="preserve">
<style type="text/css">
	.st0{fill:#5A82A1;}
</style>
<g id="XMLID_1_">
	<path id="XMLID_111_" class="st0" d="M81.2,81h-81v-7.4c0-11.2,9.1-20.2,20.2-20.2H61c11.2,0,20.2,9.1,20.2,20.2V81z M1.2,80h79
		v-6.4c0-10.6-8.6-19.2-19.2-19.2H20.5c-10.6,0-19.2,8.6-19.2,19.2V80z"/>
</g>
<g id="XMLID_2_">
	<path id="XMLID_108_" class="st0" d="M40.6,45.5c-12.5,0-22.7-10.2-22.7-22.7S28.1,0.1,40.6,0.1s22.7,10.2,22.7,22.7
		S53.2,45.5,40.6,45.5z M40.6,1.1c-12,0-21.7,9.7-21.7,21.7s9.7,21.7,21.7,21.7s21.7-9.7,21.7-21.7S52.6,1.1,40.6,1.1z"/>
</g>
</svg>
