<?xml version="1.0" encoding="utf-8"?>
<!-- Generator: Adobe Illustrator 19.0.0, SVG Export Plug-In . SVG Version: 6.00 Build 0)  -->
<svg version="1.1" id="Camada_1" xmlns="http://www.w3.org/2000/svg" xmlns:xlink="http://www.w3.org/1999/xlink" x="0px" y="0px"
	 viewBox="0 0 81.6 81.4" style="enable-background:new 0 0 81.6 81.4;" xml:space="preserve">
<style type="text/css">
	.st0{fill:#5A82A1;}
</style>
<g id="XMLID_9_">
	<g id="XMLID_5_">
		<path id="XMLID_112_" class="st0" d="M19.1,22.7h-1v-13c0-5.2,4.2-9.4,9.4-9.4h26.7c5.2,0,9.4,4.2,9.4,9.4v13h-1v-13
			c0-4.6-3.8-8.4-8.4-8.4H27.5c-4.6,0-8.4,3.8-8.4,8.4V22.7z"/>
	</g>
	<g id="XMLID_3_">
		<path id="XMLID_109_" class="st0" d="M75.8,81.2h-70c-3,0-5.5-2.5-5.5-5.5V27.9c0-3,2.5-5.5,5.5-5.5h70c3,0,5.5,2.5,5.5,5.5v47.8
			C81.3,78.7,78.8,81.2,75.8,81.2z M5.8,23.4c-2.5,0-4.5,2-4.5,4.5v47.8c0,2.5,2,4.5,4.5,4.5h70c2.5,0,4.5-2,4.5-4.5V27.9
			c0-2.5-2-4.5-4.5-4.5H5.8z"/>
	</g>
</g>
</svg>
