<?xml version="1.0" encoding="utf-8"?>
<!-- Generator: Adobe Illustrator 19.0.0, SVG Export Plug-In . SVG Version: 6.00 Build 0)  -->
<svg version="1.1" id="Camada_1" xmlns="http://www.w3.org/2000/svg" xmlns:xlink="http://www.w3.org/1999/xlink" x="0px" y="0px"
	 viewBox="3114.5 412.6 20 20.1" style="enable-background:new 3114.5 412.6 20 20.1;" xml:space="preserve">
<style type="text/css">
	.st0{fill:#BBBCBE;}
</style>
<g>
	<polygon class="st0" points="3114.5,414.1 3114.5,414.1 3114.5,414.1 	"/>
	<path class="st0" d="M3133,412.6h-17c-0.8,0-1.5,0.6-1.5,1.4v17.2c0,0.8,0.7,1.4,1.5,1.4h17c0.8,0,1.5-0.6,1.5-1.4v-17.2
		C3134.5,413.3,3133.8,412.6,3133,412.6z M3117.6,429.5v-9.1h3v9.1H3117.6z M3119.1,419.1L3119.1,419.1L3119.1,419.1
		c-1,0-1.7-0.7-1.7-1.6c0-0.9,0.7-1.6,1.7-1.6c1,0,1.7,0.7,1.7,1.6C3120.8,418.4,3120.1,419.1,3119.1,419.1z M3131.5,429.5h-3v-4.9
		c0-1.2-0.4-2.1-1.5-2.1c-0.8,0-1.3,0.6-1.6,1.1c-0.1,0.2-0.1,0.5-0.1,0.7v5.1h-3v0c0,0,0-8.2,0-9.1h3v1.3c0.4-0.6,1.1-1.5,2.7-1.5
		c2,0,3.5,1.3,3.5,4.1V429.5z"/>
</g>
</svg>
