<?xml version="1.0" encoding="utf-8"?>
<!-- Generator: Adobe Illustrator 19.0.0, SVG Export Plug-In . SVG Version: 6.00 Build 0)  -->
<svg version="1.1" id="WhatsApp_Logo" xmlns="http://www.w3.org/2000/svg" xmlns:xlink="http://www.w3.org/1999/xlink" x="0px"
	 y="0px" viewBox="0 0 20 20" style="enable-background:new 0 0 20 20;" xml:space="preserve">
<style type="text/css">
	.st0{fill-rule:evenodd;clip-rule:evenodd;fill:#BBBCBE;}
</style>
<g id="WA_Logo">
	<g>
		<path class="st0" d="M17.2,2.9C15.3,1,12.8,0,10.1,0c-5.5,0-10,4.5-10,10c0,1.8,0.5,3.5,1.3,5l-1.4,5.2l5.3-1.4
			c1.5,0.8,3.1,1.2,4.8,1.2h0c0,0,0,0,0,0c5.5,0,10-4.5,10-10C20.1,7.3,19.1,4.8,17.2,2.9z M10.1,18.2L10.1,18.2
			c-1.5,0-2.9-0.4-4.2-1.2l-0.3-0.2l-3.1,0.8l0.8-3.1l-0.2-0.3C2.3,13,1.9,11.5,1.9,10c0-4.6,3.7-8.3,8.3-8.3c2.2,0,4.3,0.9,5.9,2.4
			c1.6,1.6,2.4,3.6,2.4,5.9C18.4,14.5,14.7,18.2,10.1,18.2z M14.7,12c-0.2-0.1-1.5-0.7-1.7-0.8c-0.2-0.1-0.4-0.1-0.6,0.1
			c-0.2,0.2-0.6,0.8-0.8,1c-0.1,0.2-0.3,0.2-0.5,0.1c-0.2-0.1-1.1-0.4-2-1.2c-0.7-0.7-1.2-1.5-1.4-1.7s0-0.4,0.1-0.5
			c0.1-0.1,0.2-0.3,0.4-0.4c0.1-0.1,0.2-0.2,0.2-0.4c0.1-0.2,0-0.3,0-0.4C8.4,7.5,7.9,6.3,7.7,5.8C7.5,5.3,7.2,5.4,7.1,5.4
			c-0.1,0-0.3,0-0.5,0C6.5,5.4,6.2,5.4,6,5.7C5.7,5.9,5.1,6.5,5.1,7.7c0,1.2,0.9,2.4,1,2.6c0.1,0.2,1.8,2.7,4.3,3.8
			c0.6,0.3,1.1,0.4,1.4,0.5c0.6,0.2,1.1,0.2,1.6,0.1c0.5-0.1,1.5-0.6,1.7-1.2c0.2-0.6,0.2-1.1,0.1-1.2C15.1,12.2,14.9,12.2,14.7,12z
			"/>
	</g>
</g>
</svg>
