<?xml version="1.0" encoding="utf-8"?>
<!-- Generator: Adobe Illustrator 19.0.0, SVG Export Plug-In . SVG Version: 6.00 Build 0)  -->
<svg version="1.1" id="Camada_1" xmlns="http://www.w3.org/2000/svg" xmlns:xlink="http://www.w3.org/1999/xlink" x="0px" y="0px"
	 viewBox="0 0 250 48" style="enable-background:new 0 0 250 48;" xml:space="preserve">
<style type="text/css">
	.st0{fill-rule:evenodd;clip-rule:evenodd;fill:#3C5C75;}
	.st1{fill-rule:evenodd;clip-rule:evenodd;fill:#808183;}
	.st2{fill-rule:evenodd;clip-rule:evenodd;fill:url(#SVGID_1_);}
	.st3{fill-rule:evenodd;clip-rule:evenodd;fill:url(#SVGID_2_);}
</style>
<g>
	<g>
		<path class="st0" d="M65.4,19.8c0,2,0,3.7-0.1,4.6c-0.1,0.6-0.2,1.1-0.6,1.2c-0.2,0-0.5,0.1-0.8,0.1c-0.3,0-0.3,0.1-0.3,0.2
			c0,0.2,0.2,0.2,0.4,0.2c0.9,0,2.2-0.1,2.6-0.1c0.3,0,1.9,0.1,3.2,0.1c0.3,0,0.4-0.1,0.4-0.2c0-0.1-0.1-0.2-0.3-0.2
			c-0.3,0-0.7,0-1.1-0.1c-0.6-0.1-0.8-0.6-0.8-1.2C68,23.5,68,21.8,68,19.8v-0.3c0-0.1,0.1-0.2,0.2-0.2l1.9,0c0.2,0,0.3,0,0.4,0.2
			c0.3,0.3,1.3,1.8,2.1,3c1.2,1.7,2,2.7,3,3.2c0.6,0.3,1.1,0.4,2.3,0.4h2.1c0.3,0,0.4,0,0.4-0.2c0-0.1-0.1-0.2-0.3-0.2
			c-0.2,0-0.4,0-0.6-0.1c-0.3-0.1-1.2-0.2-2.4-1.5c-1.3-1.3-2.8-3.3-4.7-5.7c2.2-1.8,2.9-3.2,2.9-4.8c0-1.4-0.9-2.6-1.5-3
			c-1.2-0.8-2.6-0.9-4-0.9c-0.7,0-2.3,0.1-3,0.1c-0.5,0-1.8-0.1-3-0.1c-0.3,0-0.5,0-0.5,0.2s0.1,0.2,0.4,0.2c0.3,0,0.7,0,0.8,0.1
			c0.7,0.2,0.9,0.5,0.9,1.2c0,0.7,0,1.3,0,4.6V19.8L65.4,19.8z M68,11.1c0-0.2,0-0.3,0.2-0.3c0.2-0.1,0.6-0.1,1.1-0.1
			c1.3,0,3.3,0.9,3.3,4c0,1.8-0.6,2.8-1.3,3.2c-0.4,0.3-0.7,0.4-1.5,0.4c-0.5,0-1.2-0.1-1.6-0.2C68,18,68,17.9,68,17.7V11.1z"/>
		<path class="st0" d="M81.2,19.8c0,2,0,3.7-0.1,4.6c-0.1,0.6-0.2,1.1-0.6,1.2c-0.2,0-0.5,0.1-0.8,0.1c-0.3,0-0.3,0.1-0.3,0.2
			c0,0.2,0.2,0.2,0.4,0.2c0.4,0,1,0,1.5,0c0.5,0,1,0,1.2,0c0.6,0,1.3,0,2.2,0.1c0.9,0,2.1,0.1,3.7,0.1c0.8,0,1,0,1.2-0.6
			c0.1-0.4,0.3-1.9,0.3-2.4c0-0.2,0-0.4-0.2-0.4c-0.2,0-0.2,0.1-0.2,0.3c-0.2,0.9-0.4,1.3-1,1.6c-0.6,0.3-1.5,0.3-2,0.3
			c-2.2,0-2.6-0.3-2.6-1.8c0-0.6,0-2.6,0-3.4v-1.7c0-0.1,0-0.2,0.1-0.2c0.5,0,2.7,0,3.1,0.1c0.8,0.1,1.1,0.4,1.2,0.8
			c0.1,0.3,0.1,0.6,0.1,0.8c0,0.1,0,0.2,0.2,0.2c0.2,0,0.2-0.2,0.2-0.4c0-0.2,0.1-1,0.1-1.4c0.1-1.1,0.2-1.4,0.2-1.6
			c0-0.1-0.1-0.2-0.2-0.2c-0.1,0-0.2,0.1-0.3,0.3c-0.2,0.2-0.5,0.3-1,0.3c-0.5,0-3,0-3.5,0c-0.1,0-0.2-0.1-0.2-0.2v-5.5
			c0-0.2,0-0.2,0.2-0.2c0.4,0,2.7,0,3.1,0.1c1.1,0.1,1.3,0.4,1.4,0.8c0.1,0.3,0.1,0.6,0.1,0.8c0,0.2,0,0.3,0.2,0.3
			c0.2,0,0.2-0.1,0.2-0.2c0-0.3,0.1-1.2,0.1-1.4c0.1-1,0.2-1.3,0.2-1.4c0-0.1,0-0.2-0.1-0.2c-0.1,0-0.2,0.1-0.3,0.1
			c-0.2,0-0.5,0.1-0.9,0.1c-0.4,0-4.7,0-5.4,0c-0.3,0-0.8,0-1.4,0c-0.5,0-1.2,0-1.8,0c-0.3,0-0.5,0-0.5,0.2s0.1,0.2,0.4,0.2
			c0.3,0,0.7,0,0.8,0.1c0.7,0.2,0.9,0.5,0.9,1.2c0,0.7,0,1.3,0,4.6V19.8z"/>
		<path class="st0" d="M95.5,24.8c3-4.6,6.3-9.6,9.3-14.4c0.1-0.2,0.2-0.3,0.2-0.4c0-0.1-0.2-0.2-0.4-0.2h-6.6c-0.9,0-1.9,0-4-0.1
			c-0.5,0-0.7-0.2-0.9-0.2C93.1,9.5,93,9.7,93,10c-0.1,0.6-0.4,2.6-0.4,3.1c0,0.3,0,0.4,0.2,0.4c0.1,0,0.2-0.1,0.3-0.4
			c0.1-0.5,0.5-1.3,1.2-1.7c0.7-0.4,2-0.5,3.1-0.5h4.2c-2.9,4.6-6.1,9.4-9.1,14.2c-0.3,0.4-0.3,0.5-0.3,0.6s0.1,0.2,0.4,0.2
			c4.4,0,8,0.1,11.6,0.1c0.4,0,0.5-0.2,0.6-0.6c0.2-0.5,0.4-1.9,0.4-2.6c0-0.5,0-0.7-0.2-0.7c-0.1,0-0.2,0.1-0.2,0.3
			c-0.1,0.3-0.2,0.7-0.4,1c-0.3,0.6-1.2,1.2-3.4,1.2H95.5z"/>
		<path class="st0" d="M109.1,19.8c0,2,0,3.7-0.1,4.6c-0.1,0.6-0.2,1.1-0.6,1.2c-0.2,0-0.5,0.1-0.8,0.1c-0.3,0-0.3,0.1-0.3,0.2
			c0,0.2,0.2,0.2,0.4,0.2c0.4,0,1,0,1.5,0c0.5,0,1,0,1.2,0c0.6,0,1.3,0,2.2,0.1c0.9,0,2.1,0.1,3.7,0.1c0.8,0,1,0,1.2-0.6
			c0.1-0.4,0.3-1.9,0.3-2.4c0-0.2,0-0.4-0.2-0.4c-0.2,0-0.2,0.1-0.2,0.3c-0.2,0.9-0.4,1.3-1,1.6c-0.6,0.3-1.5,0.3-2,0.3
			c-2.2,0-2.6-0.3-2.6-1.8c0-0.6,0-2.6,0-3.4v-1.7c0-0.1,0-0.2,0.1-0.2c0.5,0,2.7,0,3.1,0.1c0.8,0.1,1.1,0.4,1.2,0.8
			c0.1,0.3,0.1,0.6,0.1,0.8c0,0.1,0,0.2,0.2,0.2c0.2,0,0.2-0.2,0.2-0.4c0-0.2,0.1-1,0.1-1.4c0.1-1.1,0.2-1.4,0.2-1.6
			c0-0.1-0.1-0.2-0.2-0.2c-0.1,0-0.2,0.1-0.3,0.3c-0.2,0.2-0.5,0.3-1,0.3c-0.5,0-3,0-3.5,0c-0.1,0-0.2-0.1-0.2-0.2v-5.5
			c0-0.2,0-0.2,0.2-0.2c0.4,0,2.7,0,3.1,0.1c1.1,0.1,1.3,0.4,1.4,0.8c0.1,0.3,0.1,0.6,0.1,0.8c0,0.2,0,0.3,0.2,0.3s0.2-0.1,0.2-0.2
			c0-0.3,0.1-1.2,0.1-1.4c0.1-1,0.2-1.3,0.2-1.4c0-0.1,0-0.2-0.1-0.2c-0.1,0-0.2,0.1-0.3,0.1c-0.2,0-0.5,0.1-0.9,0.1
			c-0.4,0-4.7,0-5.4,0c-0.3,0-0.8,0-1.4,0c-0.5,0-1.2,0-1.8,0c-0.3,0-0.5,0-0.5,0.2s0.1,0.2,0.4,0.2c0.3,0,0.7,0,0.8,0.1
			c0.7,0.2,0.9,0.5,0.9,1.2c0,0.7,0,1.3,0,4.6V19.8z"/>
		<path class="st0" d="M123.1,14.1L123.1,14.1c0.5,0.4,2.9,3,5.2,5.4c2.2,2.2,5,5.1,6.4,6.4c0.2,0.2,0.5,0.5,0.7,0.5
			c0.2,0,0.3-0.2,0.3-0.7L136,12c0-1.2,0.2-1.7,0.8-1.8c0.3-0.1,0.4-0.1,0.6-0.1c0.3,0,0.4-0.1,0.4-0.2c0-0.2-0.2-0.2-0.5-0.2
			c-1.1,0-1.9,0.1-2.1,0.1c-0.5,0-1.5-0.1-2.6-0.1c-0.3,0-0.6,0-0.6,0.2c0,0.1,0.1,0.2,0.3,0.2c0.3,0,0.8,0,1.1,0.1
			c0.5,0.2,0.7,0.6,0.7,1.9l0.2,9.7h-0.1c-0.4-0.3-3.3-3.5-4.8-4.9c-3.2-3.1-6.4-6.6-6.7-6.9c-0.4-0.4-0.6-0.7-0.8-0.7
			c-0.2,0-0.3,0.3-0.3,0.7l-0.2,12.7c0,1.9-0.1,2.5-0.7,2.7c-0.3,0.1-0.7,0.1-1,0.1c-0.2,0-0.3,0-0.3,0.2c0,0.2,0.2,0.2,0.5,0.2
			c1.1,0,2.1-0.1,2.3-0.1c0.4,0,1.3,0.1,2.7,0.1c0.3,0,0.5,0,0.5-0.2c0-0.1-0.1-0.2-0.4-0.2c-0.3,0-0.8,0-1.1-0.2
			c-0.4-0.2-0.7-0.7-0.8-2.4L123.1,14.1z"/>
		<path class="st0" d="M142,19.8c0,2,0,3.7-0.1,4.6c-0.1,0.6-0.2,1.1-0.6,1.2c-0.2,0-0.5,0.1-0.8,0.1c-0.3,0-0.3,0.1-0.3,0.2
			c0,0.2,0.2,0.2,0.4,0.2c0.4,0,1,0,1.5,0c0.5,0,1,0,1.2,0c0.5,0,1.3,0.1,2.1,0.1c0.8,0.1,1.7,0.1,2.5,0.1c4,0,6.2-1.5,7.2-2.6
			c1.2-1.2,2.4-3.3,2.4-6c0-2.6-1-4.4-2.1-5.5c-2.4-2.5-6-2.5-8.7-2.5c-1.3,0-2.7,0.1-3.3,0.1c-0.6,0-2-0.1-3.1-0.1
			c-0.3,0-0.5,0-0.5,0.2s0.1,0.2,0.4,0.2c0.3,0,0.7,0,0.8,0.1c0.7,0.2,0.9,0.5,0.9,1.2c0,0.7,0,1.3,0,4.6V19.8L142,19.8z
			 M144.7,15.6c0-1.7,0-3.6,0-4.3c0-0.2,0.1-0.3,0.3-0.4c0.2-0.1,1-0.2,1.4-0.2c1.7,0,4.1,0.3,6.1,2.2c0.9,0.9,2.1,2.7,2.1,5.4
			c0,2.2-0.4,4.2-1.8,5.4c-1.3,1.1-2.8,1.6-5,1.6c-1.7,0-2.6-0.5-2.8-0.9c-0.2-0.2-0.2-1.1-0.2-1.6c0-0.4,0-2.1,0-4.4V15.6z"/>
		<path class="st0" d="M161.5,19.8c0,2,0,3.7-0.1,4.6c-0.1,0.6-0.2,1.1-0.6,1.2c-0.2,0-0.5,0.1-0.8,0.1c-0.3,0-0.3,0.1-0.3,0.2
			c0,0.2,0.2,0.2,0.4,0.2c0.4,0,1,0,1.5,0c0.5,0,1,0,1.2,0c0.6,0,1.3,0,2.2,0.1c0.9,0,2.1,0.1,3.7,0.1c0.8,0,1,0,1.2-0.6
			c0.1-0.4,0.3-1.9,0.3-2.4c0-0.2,0-0.4-0.2-0.4c-0.2,0-0.2,0.1-0.2,0.3c-0.2,0.9-0.4,1.3-1,1.6c-0.6,0.3-1.5,0.3-2,0.3
			c-2.2,0-2.6-0.3-2.6-1.8c0-0.6,0-2.6,0-3.4v-1.7c0-0.1,0-0.2,0.1-0.2c0.5,0,2.7,0,3.1,0.1c0.8,0.1,1.1,0.4,1.2,0.8
			c0.1,0.3,0.1,0.6,0.1,0.8c0,0.1,0,0.2,0.2,0.2c0.2,0,0.2-0.2,0.2-0.4c0-0.2,0.1-1,0.1-1.4c0.1-1.1,0.2-1.4,0.2-1.6
			c0-0.1-0.1-0.2-0.2-0.2c-0.1,0-0.2,0.1-0.3,0.3c-0.2,0.2-0.5,0.3-1,0.3c-0.5,0-3,0-3.5,0c-0.1,0-0.2-0.1-0.2-0.2v-5.5
			c0-0.2,0-0.2,0.2-0.2c0.4,0,2.7,0,3.1,0.1c1.1,0.1,1.3,0.4,1.4,0.8c0.1,0.3,0.1,0.6,0.1,0.8c0,0.2,0,0.3,0.2,0.3s0.2-0.1,0.2-0.2
			c0-0.3,0.1-1.2,0.1-1.4c0.1-1,0.2-1.3,0.2-1.4c0-0.1,0-0.2-0.1-0.2s-0.2,0.1-0.3,0.1c-0.2,0-0.5,0.1-0.9,0.1c-0.4,0-4.7,0-5.4,0
			c-0.3,0-0.8,0-1.4,0c-0.5,0-1.2,0-1.8,0c-0.3,0-0.5,0-0.5,0.2s0.1,0.2,0.4,0.2c0.3,0,0.7,0,0.8,0.1c0.7,0.2,0.9,0.5,0.9,1.2
			c0,0.7,0,1.3,0,4.6V19.8z"/>
		<path class="st0" d="M182,14.1L182,14.1c0.5,0.4,2.9,3,5.2,5.4c2.2,2.2,5,5.1,6.4,6.4c0.2,0.2,0.5,0.5,0.7,0.5
			c0.2,0,0.3-0.2,0.3-0.7l0.2-13.6c0-1.2,0.2-1.7,0.8-1.8c0.3-0.1,0.4-0.1,0.6-0.1c0.3,0,0.4-0.1,0.4-0.2c0-0.2-0.2-0.2-0.5-0.2
			c-1.1,0-1.9,0.1-2.1,0.1c-0.5,0-1.5-0.1-2.6-0.1c-0.3,0-0.6,0-0.6,0.2c0,0.1,0.1,0.2,0.3,0.2c0.3,0,0.8,0,1.1,0.1
			c0.5,0.2,0.7,0.6,0.7,1.9l0.2,9.7h-0.1c-0.4-0.3-3.3-3.5-4.8-4.9c-3.2-3.1-6.4-6.6-6.7-6.9c-0.4-0.4-0.6-0.7-0.8-0.7
			c-0.2,0-0.3,0.3-0.3,0.7l-0.2,12.7c0,1.9-0.1,2.5-0.7,2.7c-0.3,0.1-0.7,0.1-1,0.1c-0.2,0-0.3,0-0.3,0.2c0,0.2,0.2,0.2,0.5,0.2
			c1.1,0,2.1-0.1,2.3-0.1c0.4,0,1.3,0.1,2.7,0.1c0.3,0,0.5,0,0.5-0.2c0-0.1-0.1-0.2-0.4-0.2c-0.3,0-0.8,0-1.1-0.2
			c-0.4-0.2-0.7-0.7-0.8-2.4L182,14.1z"/>
		<path class="st0" d="M201,19.8c0,2,0,3.7-0.1,4.6c-0.1,0.6-0.2,1.1-0.6,1.2c-0.2,0-0.5,0.1-0.8,0.1c-0.3,0-0.3,0.1-0.3,0.2
			c0,0.2,0.2,0.2,0.4,0.2c0.4,0,1,0,1.5,0c0.5,0,1,0,1.2,0c0.6,0,1.3,0,2.2,0.1c0.9,0,2.1,0.1,3.7,0.1c0.8,0,1,0,1.2-0.6
			c0.1-0.4,0.3-1.9,0.3-2.4c0-0.2,0-0.4-0.2-0.4c-0.2,0-0.2,0.1-0.2,0.3c-0.2,0.9-0.4,1.3-1,1.6c-0.6,0.3-1.5,0.3-2,0.3
			c-2.2,0-2.6-0.3-2.6-1.8c0-0.6,0-2.6,0-3.4v-1.7c0-0.1,0-0.2,0.1-0.2c0.5,0,2.7,0,3.1,0.1c0.8,0.1,1.1,0.4,1.2,0.8
			c0.1,0.3,0.1,0.6,0.1,0.8c0,0.1,0,0.2,0.2,0.2c0.2,0,0.2-0.2,0.2-0.4c0-0.2,0.1-1,0.1-1.4c0.1-1.1,0.2-1.4,0.2-1.6
			c0-0.1-0.1-0.2-0.2-0.2c-0.1,0-0.2,0.1-0.3,0.3c-0.2,0.2-0.5,0.3-1,0.3c-0.5,0-3,0-3.5,0c-0.1,0-0.2-0.1-0.2-0.2v-5.5
			c0-0.2,0-0.2,0.2-0.2c0.4,0,2.7,0,3.1,0.1c1.1,0.1,1.3,0.4,1.4,0.8c0.1,0.3,0.1,0.6,0.1,0.8c0,0.2,0,0.3,0.2,0.3
			c0.2,0,0.2-0.1,0.2-0.2c0-0.3,0.1-1.2,0.1-1.4c0.1-1,0.2-1.3,0.2-1.4c0-0.1,0-0.2-0.1-0.2c-0.1,0-0.2,0.1-0.3,0.1
			c-0.2,0-0.5,0.1-0.9,0.1c-0.4,0-4.7,0-5.4,0c-0.3,0-0.8,0-1.4,0c-0.5,0-1.2,0-1.8,0c-0.3,0-0.5,0-0.5,0.2s0.1,0.2,0.4,0.2
			c0.3,0,0.7,0,0.8,0.1c0.7,0.2,0.9,0.5,0.9,1.2c0,0.7,0,1.3,0,4.6V19.8z"/>
		<path class="st0" d="M214,19.8c0,2.1,0,3.8-0.1,4.7c-0.1,0.6-0.2,1-0.6,1.1c-0.2,0-0.5,0.1-0.8,0.1c-0.3,0-0.3,0.1-0.3,0.2
			c0,0.2,0.2,0.2,0.4,0.2c0.9,0,2.2-0.1,2.7-0.1c0.6,0,1.9,0.1,3.4,0.1c0.2,0,0.4-0.1,0.4-0.2c0-0.1-0.1-0.2-0.3-0.2
			c-0.3,0-0.8,0-1.1-0.1c-0.6-0.1-0.8-0.5-0.9-1.1c-0.1-0.9-0.1-2.6-0.1-4.7V16c0-3.3,0-3.9,0-4.6c0-0.8,0.2-1.1,0.8-1.2
			c0.3,0,0.4-0.1,0.6-0.1c0.2,0,0.3,0,0.3-0.2c0-0.1-0.2-0.2-0.5-0.2c-0.8,0-2.1,0.1-2.6,0.1c-0.6,0-2-0.1-2.8-0.1
			c-0.3,0-0.5,0-0.5,0.2c0,0.2,0.1,0.2,0.3,0.2c0.3,0,0.5,0,0.8,0.1c0.5,0.1,0.7,0.5,0.7,1.2c0,0.7,0,1.3,0,4.6V19.8z"/>
		<path class="st0" d="M226.7,25c0.4,1,0.5,1.3,0.8,1.3c0.3,0,0.4-0.3,1-1.6c0.5-1.1,1.5-3.4,2.9-6.6c1.2-2.7,1.8-3.8,2.6-5.9
			c0.6-1.4,0.9-1.8,1.2-1.9c0.4-0.3,0.8-0.3,1.1-0.3c0.2,0,0.3,0,0.3-0.2s-0.2-0.2-0.5-0.2c-0.6,0-1.7,0.1-2,0.1
			c-0.3,0-1.2-0.1-2.3-0.1c-0.4,0-0.6,0-0.6,0.2c0,0.2,0.2,0.2,0.4,0.2c0.3,0,0.6,0,0.9,0.1c0.2,0.1,0.3,0.2,0.3,0.4
			c0,0.2-0.1,0.5-0.2,0.8c-0.5,1.4-3.3,8.4-4.3,10.8h-0.1l-3.7-9.8c-0.3-0.8-0.5-1.4-0.5-1.7c0-0.2,0.1-0.3,0.2-0.5
			c0.2-0.1,0.5-0.2,0.8-0.2c0.2,0,0.3,0,0.3-0.2s-0.2-0.2-0.5-0.2c-1.1,0-2.1,0.1-2.7,0.1c-0.8,0-2-0.1-3.1-0.1
			c-0.3,0-0.6,0-0.6,0.2c0,0.1,0.1,0.2,0.3,0.2c0.2,0,0.5,0,0.8,0.1c0.8,0.2,1.1,0.5,1.6,1.6L226.7,25z"/>
		<path class="st0" d="M242.8,20.5c0.1,0,0.2,0,0.2,0.2l1.7,4.5c0.1,0.3,0,0.5-0.2,0.5c-0.2,0-0.3,0.1-0.3,0.2
			c0,0.2,0.3,0.2,0.6,0.2c1.7,0,3.3,0,4.1,0c0.8,0,1,0,1-0.2c0-0.2-0.1-0.2-0.3-0.2c-0.3,0-0.6,0-0.9-0.1c-0.5-0.1-1.1-0.4-1.9-2.4
			c-1.4-3.3-4.8-11.9-5.4-13.1c-0.2-0.5-0.3-0.7-0.5-0.7c-0.2,0-0.3,0.2-0.6,0.9L235,23.7c-0.4,1.1-0.8,1.8-1.8,1.9
			c-0.2,0-0.5,0-0.7,0c-0.2,0-0.3,0-0.3,0.2c0,0.2,0.1,0.2,0.4,0.2c1.1,0,2.3-0.1,2.6-0.1c0.7,0,1.6,0.1,2.3,0.1
			c0.2,0,0.4,0,0.4-0.2c0-0.1-0.1-0.2-0.3-0.2h-0.3c-0.7,0-0.9-0.3-0.9-0.7c0-0.3,0.1-0.8,0.3-1.3l1.2-3c0-0.1,0.1-0.2,0.2-0.2
			H242.8L242.8,20.5z M238.4,19.4c-0.1,0-0.1-0.1-0.1-0.2l2-5.3c0-0.1,0.1-0.2,0.1-0.2c0.1,0,0.1,0.1,0.1,0.2l1.9,5.3
			c0,0.1,0,0.1-0.1,0.1H238.4z"/>
		<path class="st1" d="M111.8,41.8c0,0.1,0,0.1,0.1,0.2c0,0,0,0.1,0,0.1c0,0-0.1,0-0.2,0c-0.1,0-0.2,0-0.3,0c-0.1,0-0.2,0-0.3,0
			c-0.1,0-0.1,0-0.2,0c0,0-0.1,0-0.1,0c0,0,0,0-0.1-0.1l-0.7-1.5h-3.2l-0.6,1.5c0,0,0,0.1,0,0.1c0,0,0,0-0.1,0.1c0,0-0.1,0-0.2,0
			c-0.1,0-0.2,0-0.3,0c-0.1,0-0.2,0-0.3,0c-0.1,0-0.1,0-0.2,0c0,0,0-0.1,0-0.1c0,0,0-0.1,0.1-0.2l2.6-5.8c0,0,0-0.1,0.1-0.1
			c0,0,0.1,0,0.1-0.1c0,0,0.1,0,0.2,0c0.1,0,0.2,0,0.3,0c0.1,0,0.2,0,0.3,0c0.1,0,0.2,0,0.2,0c0.1,0,0.1,0,0.1,0.1
			c0,0,0.1,0.1,0.1,0.1L111.8,41.8L111.8,41.8z M108.5,36.7L108.5,36.7l-1.3,3.1h2.7L108.5,36.7z"/>
		<path class="st1" d="M123.8,38.9c0,0.5-0.1,1-0.3,1.4c-0.2,0.4-0.4,0.7-0.8,1c-0.3,0.3-0.7,0.5-1.2,0.6c-0.5,0.1-1.1,0.2-1.7,0.2
			h-1.6c-0.1,0-0.2,0-0.3-0.1c-0.1-0.1-0.1-0.1-0.1-0.3v-5.6c0-0.1,0-0.2,0.1-0.3c0.1,0,0.2-0.1,0.3-0.1h1.8c0.7,0,1.2,0.1,1.7,0.2
			c0.5,0.1,0.9,0.3,1.2,0.6c0.3,0.3,0.6,0.6,0.7,1C123.7,38,123.8,38.4,123.8,38.9L123.8,38.9z M122.7,38.9c0-0.3-0.1-0.7-0.2-0.9
			c-0.1-0.3-0.3-0.5-0.5-0.8c-0.2-0.2-0.5-0.4-0.8-0.5c-0.3-0.1-0.8-0.2-1.3-0.2h-1.1v4.9h1.1c0.5,0,0.9,0,1.3-0.2
			c0.3-0.1,0.6-0.3,0.9-0.5c0.2-0.2,0.4-0.5,0.5-0.8C122.7,39.7,122.7,39.3,122.7,38.9z"/>
		<path class="st1" d="M133.1,42C133.1,42,133.1,42,133.1,42c-0.1,0.1-0.1,0.1-0.2,0.1c0,0-0.1,0-0.2,0c-0.1,0-0.2,0-0.3,0
			c-0.1,0-0.2,0-0.2,0c-0.1,0-0.1,0-0.2,0c0,0-0.1,0-0.1,0c0,0-0.1,0-0.1,0c0,0,0,0-0.1,0c0,0,0,0,0-0.1l-2.5-5.8c0-0.1,0-0.1,0-0.2
			c0,0,0-0.1,0-0.1c0,0,0.1,0,0.2,0c0.1,0,0.2,0,0.3,0c0.1,0,0.2,0,0.3,0c0.1,0,0.1,0,0.2,0c0,0,0.1,0,0.1,0c0,0,0,0,0.1,0.1
			l2.2,5.3h0l2.2-5.3c0,0,0-0.1,0-0.1c0,0,0,0,0.1-0.1c0,0,0.1,0,0.2,0c0.1,0,0.2,0,0.3,0c0.1,0,0.2,0,0.3,0c0.1,0,0.1,0,0.1,0
			c0,0,0,0.1,0,0.1c0,0,0,0.1-0.1,0.2L133.1,42z"/>
		<path class="st1" d="M148,38.9c0,0.5-0.1,1-0.2,1.4c-0.1,0.4-0.4,0.8-0.7,1c-0.3,0.3-0.7,0.5-1.1,0.7c-0.4,0.2-1,0.2-1.6,0.2
			c-0.6,0-1.1-0.1-1.5-0.2c-0.4-0.1-0.8-0.3-1.1-0.6c-0.3-0.3-0.5-0.6-0.6-1c-0.1-0.4-0.2-0.9-0.2-1.4c0-0.5,0.1-0.9,0.2-1.3
			c0.1-0.4,0.4-0.7,0.7-1c0.3-0.3,0.7-0.5,1.1-0.7c0.4-0.2,1-0.2,1.6-0.2c0.6,0,1.1,0.1,1.5,0.2c0.4,0.1,0.8,0.3,1.1,0.6
			c0.3,0.3,0.5,0.6,0.6,1C148,37.9,148,38.4,148,38.9L148,38.9z M146.9,39c0-0.4,0-0.7-0.1-1c-0.1-0.3-0.2-0.6-0.4-0.8
			c-0.2-0.2-0.4-0.4-0.7-0.5c-0.3-0.1-0.7-0.2-1.1-0.2c-0.4,0-0.8,0.1-1.1,0.2c-0.3,0.1-0.6,0.3-0.7,0.5c-0.2,0.2-0.3,0.5-0.4,0.8
			c-0.1,0.3-0.1,0.6-0.1,0.9c0,0.4,0,0.7,0.1,1c0.1,0.3,0.2,0.6,0.4,0.8c0.2,0.2,0.4,0.4,0.7,0.5c0.3,0.1,0.7,0.2,1.1,0.2
			c0.5,0,0.8-0.1,1.1-0.2c0.3-0.1,0.6-0.3,0.7-0.5c0.2-0.2,0.3-0.5,0.4-0.8C146.9,39.6,146.9,39.3,146.9,39z"/>
		<path class="st1" d="M160.2,36.7c0,0.1,0,0.1,0,0.2c0,0,0,0.1,0,0.1c0,0,0,0.1-0.1,0.1c0,0,0,0-0.1,0c0,0-0.1,0-0.2-0.1
			c-0.1-0.1-0.3-0.1-0.5-0.2c-0.2-0.1-0.4-0.1-0.7-0.2c-0.3-0.1-0.6-0.1-0.9-0.1c-0.4,0-0.8,0.1-1.2,0.2c-0.3,0.1-0.6,0.3-0.9,0.5
			c-0.2,0.2-0.4,0.5-0.5,0.8c-0.1,0.3-0.2,0.6-0.2,1c0,0.4,0.1,0.8,0.2,1.1c0.1,0.3,0.3,0.6,0.6,0.8c0.2,0.2,0.5,0.4,0.9,0.5
			c0.3,0.1,0.7,0.2,1.1,0.2c0.2,0,0.5,0,0.7-0.1c0.2,0,0.5-0.1,0.7-0.2v-1.8h-1.8c-0.1,0-0.1,0-0.2-0.1c0-0.1-0.1-0.1-0.1-0.3
			c0-0.1,0-0.1,0-0.2c0,0,0-0.1,0-0.1c0,0,0,0,0.1-0.1c0,0,0.1,0,0.1,0h2.5c0,0,0.1,0,0.1,0c0,0,0.1,0,0.1,0.1c0,0,0.1,0.1,0.1,0.1
			c0,0,0,0.1,0,0.2v2.4c0,0.1,0,0.2-0.1,0.2c0,0.1-0.1,0.1-0.2,0.2c-0.1,0-0.3,0.1-0.5,0.2c-0.2,0.1-0.4,0.1-0.6,0.1
			c-0.2,0-0.4,0.1-0.6,0.1c-0.2,0-0.4,0-0.6,0c-0.6,0-1.1-0.1-1.6-0.2c-0.5-0.2-0.9-0.4-1.2-0.6c-0.3-0.3-0.6-0.6-0.7-1
			c-0.2-0.4-0.3-0.8-0.3-1.3c0-0.5,0.1-0.9,0.3-1.4c0.2-0.4,0.5-0.7,0.8-1c0.3-0.3,0.7-0.5,1.2-0.7c0.5-0.2,1-0.2,1.6-0.2
			c0.3,0,0.6,0,0.8,0.1c0.3,0,0.5,0.1,0.7,0.1c0.2,0.1,0.4,0.1,0.5,0.2c0.1,0.1,0.2,0.1,0.3,0.2c0.1,0,0.1,0.1,0.1,0.1
			C160.2,36.5,160.2,36.6,160.2,36.7z"/>
		<path class="st1" d="M172.7,41.8c0,0.1,0,0.1,0.1,0.2c0,0,0,0.1,0,0.1c0,0-0.1,0-0.2,0c-0.1,0-0.2,0-0.3,0c-0.1,0-0.2,0-0.3,0
			c-0.1,0-0.1,0-0.2,0c0,0-0.1,0-0.1,0c0,0,0,0-0.1-0.1l-0.7-1.5h-3.2l-0.6,1.5c0,0,0,0.1,0,0.1c0,0,0,0-0.1,0.1c0,0-0.1,0-0.2,0
			c-0.1,0-0.2,0-0.3,0c-0.1,0-0.2,0-0.3,0c-0.1,0-0.1,0-0.2,0c0,0,0-0.1,0-0.1c0,0,0-0.1,0.1-0.2l2.6-5.8c0,0,0-0.1,0.1-0.1
			c0,0,0.1,0,0.1-0.1c0,0,0.1,0,0.2,0c0.1,0,0.2,0,0.3,0c0.1,0,0.2,0,0.3,0c0.1,0,0.2,0,0.2,0c0.1,0,0.1,0,0.1,0.1
			c0,0,0.1,0.1,0.1,0.1L172.7,41.8L172.7,41.8z M169.4,36.7L169.4,36.7l-1.3,3.1h2.7L169.4,36.7z"/>
		<path class="st1" d="M184.7,38.9c0,0.5-0.1,1-0.3,1.4c-0.2,0.4-0.4,0.7-0.8,1c-0.3,0.3-0.7,0.5-1.2,0.6c-0.5,0.1-1.1,0.2-1.7,0.2
			h-1.6c-0.1,0-0.2,0-0.3-0.1c-0.1-0.1-0.1-0.1-0.1-0.3v-5.6c0-0.1,0-0.2,0.1-0.3c0.1,0,0.2-0.1,0.3-0.1h1.8c0.7,0,1.2,0.1,1.7,0.2
			c0.5,0.1,0.9,0.3,1.2,0.6c0.3,0.3,0.6,0.6,0.7,1C184.6,38,184.7,38.4,184.7,38.9L184.7,38.9z M183.6,38.9c0-0.3-0.1-0.7-0.2-0.9
			c-0.1-0.3-0.3-0.5-0.5-0.8c-0.2-0.2-0.5-0.4-0.8-0.5c-0.3-0.1-0.8-0.2-1.3-0.2h-1.1v4.9h1.1c0.5,0,0.9,0,1.3-0.2
			c0.3-0.1,0.6-0.3,0.9-0.5c0.2-0.2,0.4-0.5,0.5-0.8C183.6,39.7,183.6,39.3,183.6,38.9z"/>
		<path class="st1" d="M197.5,38.9c0,0.5-0.1,1-0.2,1.4c-0.1,0.4-0.4,0.8-0.7,1c-0.3,0.3-0.7,0.5-1.1,0.7c-0.4,0.2-1,0.2-1.6,0.2
			c-0.6,0-1.1-0.1-1.5-0.2c-0.4-0.1-0.8-0.3-1.1-0.6c-0.3-0.3-0.5-0.6-0.6-1c-0.1-0.4-0.2-0.9-0.2-1.4c0-0.5,0.1-0.9,0.2-1.3
			c0.1-0.4,0.4-0.7,0.7-1c0.3-0.3,0.7-0.5,1.1-0.7c0.4-0.2,1-0.2,1.6-0.2c0.6,0,1.1,0.1,1.5,0.2c0.4,0.1,0.8,0.3,1.1,0.6
			c0.3,0.3,0.5,0.6,0.6,1C197.5,37.9,197.5,38.4,197.5,38.9L197.5,38.9z M196.5,39c0-0.4,0-0.7-0.1-1c-0.1-0.3-0.2-0.6-0.4-0.8
			c-0.2-0.2-0.4-0.4-0.7-0.5c-0.3-0.1-0.7-0.2-1.1-0.2c-0.4,0-0.8,0.1-1.1,0.2c-0.3,0.1-0.6,0.3-0.7,0.5c-0.2,0.2-0.3,0.5-0.4,0.8
			c-0.1,0.3-0.1,0.6-0.1,0.9c0,0.4,0,0.7,0.1,1c0.1,0.3,0.2,0.6,0.4,0.8c0.2,0.2,0.4,0.4,0.7,0.5c0.3,0.1,0.7,0.2,1.1,0.2
			c0.5,0,0.8-0.1,1.1-0.2c0.3-0.1,0.6-0.3,0.7-0.5c0.2-0.2,0.3-0.5,0.4-0.8C196.4,39.6,196.5,39.3,196.5,39z"/>
		<path class="st1" d="M208.1,40.3c0,0.3-0.1,0.6-0.2,0.8c-0.1,0.2-0.3,0.4-0.6,0.6c-0.2,0.2-0.5,0.3-0.8,0.4
			c-0.3,0.1-0.7,0.1-1,0.1c-0.3,0-0.5,0-0.7-0.1c-0.2,0-0.4-0.1-0.6-0.1c-0.2-0.1-0.3-0.1-0.4-0.2c-0.1-0.1-0.2-0.1-0.2-0.1
			c0,0-0.1-0.1-0.1-0.1c0-0.1,0-0.1,0-0.2c0-0.1,0-0.1,0-0.2c0,0,0-0.1,0-0.1c0,0,0,0,0.1-0.1c0,0,0.1,0,0.1,0c0.1,0,0.1,0,0.2,0.1
			c0.1,0.1,0.2,0.1,0.4,0.2c0.2,0.1,0.4,0.1,0.6,0.2c0.2,0.1,0.5,0.1,0.8,0.1c0.2,0,0.4,0,0.6-0.1c0.2,0,0.3-0.1,0.5-0.2
			c0.1-0.1,0.2-0.2,0.3-0.3c0.1-0.1,0.1-0.3,0.1-0.4c0-0.2,0-0.3-0.2-0.5c-0.1-0.1-0.2-0.2-0.4-0.3c-0.2-0.1-0.4-0.2-0.6-0.3
			c-0.2-0.1-0.4-0.2-0.6-0.2c-0.2-0.1-0.4-0.2-0.6-0.3c-0.2-0.1-0.4-0.2-0.6-0.4c-0.2-0.1-0.3-0.3-0.4-0.5c-0.1-0.2-0.2-0.4-0.2-0.7
			c0-0.3,0.1-0.5,0.2-0.7c0.1-0.2,0.3-0.4,0.5-0.5c0.2-0.1,0.5-0.2,0.8-0.3c0.3-0.1,0.6-0.1,0.9-0.1c0.2,0,0.3,0,0.5,0
			c0.2,0,0.3,0.1,0.5,0.1c0.2,0,0.3,0.1,0.4,0.1c0.1,0,0.2,0.1,0.2,0.1c0,0,0.1,0.1,0.1,0.1c0,0,0,0,0,0.1c0,0,0,0.1,0,0.1
			c0,0,0,0.1,0,0.2c0,0.1,0,0.1,0,0.2c0,0,0,0.1,0,0.1c0,0,0,0.1,0,0.1c0,0,0,0-0.1,0c0,0-0.1,0-0.2-0.1c-0.1,0-0.2-0.1-0.3-0.2
			c-0.1-0.1-0.3-0.1-0.5-0.2c-0.2,0-0.4-0.1-0.6-0.1c-0.2,0-0.4,0-0.6,0.1c-0.2,0-0.3,0.1-0.4,0.2c-0.1,0.1-0.2,0.2-0.2,0.3
			c-0.1,0.1-0.1,0.2-0.1,0.3c0,0.2,0,0.3,0.2,0.5c0.1,0.1,0.2,0.2,0.4,0.3c0.2,0.1,0.4,0.2,0.6,0.3c0.2,0.1,0.4,0.2,0.7,0.2
			c0.2,0.1,0.4,0.2,0.6,0.3c0.2,0.1,0.4,0.2,0.6,0.3c0.2,0.1,0.3,0.3,0.4,0.5C208,39.9,208.1,40.1,208.1,40.3z"/>
	</g>
	<g>
		<linearGradient id="SVGID_1_" gradientUnits="userSpaceOnUse" x1="35.2842" y1="11.2225" x2="39.4449" y2="44.8292">
			<stop  offset="0" style="stop-color:#929496"/>
			<stop  offset="1" style="stop-color:#BBBCBE"/>
		</linearGradient>
		<path class="st2" d="M25.4,19.4h0.1c0.8,0.9,5.8,6.4,10.8,11.3c4.7,4.7,10.5,10.6,13.4,13.3c0.5,0.5,1.3,1.4,1.5,1l0.8-1.5l0-23.7
			c0-4.4-0.4-7.8-2.4-9.5l-2.5-2.1c-0.3-0.3-0.5-0.4-0.7-0.2c-0.1,0.1-0.1,0.3,0.1,0.5c0.2,0.2,0.4,0.4,0.7,0.7
			c0.3,0.4,1.2,1.5,1.4,4.2c0.4,5.8-0.2,14.4-0.3,20.5h-0.2c-0.8-0.7-6.1-5.5-9.2-8.6c-6.6-6.6-13.5-13.8-14-14.4
			c-0.8-0.8-1.2-1.4-1.7-1.4c-0.5,0-0.6,0.6-0.6,1.5l-0.4,24.3c1.1,1.3,2.3,2.6,3.4,3.8c0.1,0.1,0.2,0.2,0.3,0.3
			c0-0.4,0-0.8-0.1-1.2L25.4,19.4z"/>
		<path class="st0" d="M3.6,29.9L8.4,30c0.4,0,0.7,0.1,1,0.4c0.7,0.8,3.2,4.6,5.4,7.6c3.1,4.2,5.2,6.8,7.5,8.1c1.4,0.8,2.8,1,5.9,1
			h5.2c0.7,0,1-0.1,1-0.5c0-0.3-0.2-0.4-0.7-0.4c-0.4,0-0.9-0.1-1.5-0.2c-0.8-0.2-3.1-0.5-6.2-3.7c-3.2-3.4-7-8.3-11.9-14.5
			c5.6-4.5,7.3-8.2,7.3-12.3c0-3.7-2.2-6.5-3.7-7.5c-3-2-6.7-2.4-10.1-2.4c-0.9,0-2.4,0-4,0.1v2.7l0,0c0.5-0.2,1.5-0.2,2.9-0.2
			c3.2,0,8.4,2.3,8.4,10.1c0,4.5-1.6,7-3.2,8.3c-1,0.7-1.7,0.9-3.9,0.9c-1.4,0-3-0.2-4.2-0.5l0,0V29.9z"/>
		<linearGradient id="SVGID_2_" gradientUnits="userSpaceOnUse" x1="23.8816" y1="0.7408" x2="27.6696" y2="42.5198">
			<stop  offset="0" style="stop-color:#929496"/>
			<stop  offset="1" style="stop-color:#BBBCBE"/>
		</linearGradient>
		<polygon class="st3" points="1.6,45.5 1.6,2.4 50.4,2.4 52,0.9 1.6,0.9 0,0.9 0,2.4 0,47.1 		"/>
	</g>
</g>
</svg>
